# xmcd CD database file
# Copyright (C) 1993-1998 Ti Kan
#
# Track frame offsets:
#  183
#  13895
#  27173
#  39013
#  48828
#  61050
#  71268
#  84978
#  97283
#  109708
#  121218
#  130548
#  143480
#  157353
#  170223
#  184203
#  194083
#  212448
#  227403
#  242410
#  255883
#  266533
#  278223
#
# Disc length: 3875 seconds
#
# Revision: 1
# Processed by: cddbd v1.5.2PL0 Copyright (c) Steve Scherf et al.
# Submitted via: CDWizzard Release:4.35
#
DISCID=340f2117
DTITLE=Hall  Tom T. - Ballad Of Fourty Dollars/Homecoming
DYEAR=1900
DGENRE=Country
TTITLE0=That's How I Got To Memphis
TTITLE1=Cloudy Day
TTITLE2=Shame On The Rain
TTITLE3=Highways
TTITLE4=Forbidden Flowers
TTITLE5=Ain't Got The Time
TTITLE6=Ballad Of Fourty Dollars
TTITLE7=I Washed My Face In The Morning Dew
TTITLE8=A Picture Of Your Mother
TTITLE9=The World The Way I Want It
TTITLE10=Over And Over Again
TTITLE11=Beauty Is A Fading Flower
TTITLE12=A Week In The Country Jail
TTITLE13=Strawberry Farms
TTITLE14=Shoeshine Man
TTITLE15=Kentucky In The Morning
TTITLE16=Nashville Is A Groovy Little town
TTITLE17=Margie's At Lincoln park Inn
TTITLE18=Homecoming
TTITLE19=The Carter Boys
TTITLE20=Flat-Footin' It
TTITLE21=George (And The Northwoods)
TTITLE22=I Miss A Lot Of Trains
EXTD=
EXTT0=
EXTT1=
EXTT2=
EXTT3=
EXTT4=
EXTT5=
EXTT6=
EXTT7=
EXTT8=
EXTT9=
EXTT10=
EXTT11=
EXTT12=
EXTT13=
EXTT14=
EXTT15=
EXTT16=
EXTT17=
EXTT18=
EXTT19=
EXTT20=
EXTT21=
EXTT22=
PLAYORDER=
